<svg xmlns="http://www.w3.org/2000/svg"
 xmlns:xlink="http://www.w3.org/1999/xlink"
 width="19px" height="24px"  viewBox="0 0 19 24">
<path fill-rule="evenodd"  fill="transparent"
 d="M10.0,17.000244 C11.65686,17.000244 13.0,18.343262 13.0,20.000183 C13.0,21.65686 11.65686,23.000183 10.0,23.000183 C8.343201,23.000183 7.0,21.65686 7.0,20.000183 C7.0,18.343262 8.343201,17.000244 10.0,17.000244 ZM15.0,20.000183 C15.0,20.000183 15.0,19.000427 15.0,19.000427 C15.0,19.000427 18.0,19.000427 18.0,19.000427 C18.0,19.000427 18.0,20.000183 18.0,20.000183 C18.0,20.000183 15.0,20.000183 15.0,20.000183 ZM2.0,20.000183 C2.0,20.000183 2.0,19.000427 2.0,19.000427 C2.0,19.000427 5.0,19.000427 5.0,19.000427 C5.0,19.000427 5.0,20.000183 5.0,20.000183 C5.0,20.000183 2.0,20.000183 2.0,20.000183 ZM7.0,2.0003052 C7.0,2.0003052 7.0,1.0002441 7.0,1.0002441 C7.0,1.0002441 13.0,1.0002441 13.0,1.0002441 C13.0,1.0002441 13.0,2.0003052 13.0,2.0003052 C13.0,2.0003052 7.0,2.0003052 7.0,2.0003052 Z"/>
</svg>