<svg xmlns="http://www.w3.org/2000/svg"
 xmlns:xlink="http://www.w3.org/1999/xlink"
 width="25px" height="25px"  viewBox="0 0 25 25">
<path fill-rule="evenodd"  fill="#ffffff"
 d="M20.185242,14.218262 C19.993713,14.926025 19.712585,15.597168 19.355225,16.218506 C19.355225,16.218506 21.04596,18.510498 21.04596,18.510498 C21.04596,18.510498 18.510498,21.046143 18.510498,21.046143 C18.510498,21.046143 16.218567,19.355469 16.218567,19.355469 C15.59668,19.71289 14.926086,19.993896 14.2178955,20.185547 C14.2178955,20.185547 13.79303,23.000244 13.79303,23.000244 C13.79303,23.000244 10.207092,23.000244 10.207092,23.000244 C10.207092,23.000244 9.7821045,20.185547 9.7821045,20.185547 C9.074036,19.993896 8.40332,19.71289 7.781555,19.355469 C7.781555,19.355469 5.489624,21.046143 5.489624,21.046143 C5.489624,21.046143 2.9540405,18.510498 2.9540405,18.510498 C2.9540405,18.510498 4.6447754,16.218506 4.6447754,16.218506 C4.2874146,15.597168 4.0062866,14.926025 3.8147583,14.218262 C3.8147583,14.218262 1.000061,13.793213 1.000061,13.793213 C1.000061,13.793213 1.000061,10.207275 1.000061,10.207275 C1.000061,10.207275 3.8147583,9.782227 3.8147583,9.782227 C4.0062866,9.07373 4.2874146,8.403564 4.6447754,7.781494 C4.6447754,7.781494 2.9540405,5.489746 2.9540405,5.489746 C2.9540405,5.489746 5.489624,2.9543457 5.489624,2.9543457 C5.489624,2.9543457 7.781555,4.6450195 7.781555,4.6450195 C8.40332,4.2875977 9.074036,4.0063477 9.7821045,3.8149414 C9.7821045,3.8149414 10.207092,1.0 10.207092,1.0 C10.207092,1.0 13.79303,1.0 13.79303,1.0 C13.79303,1.0 14.2178955,3.8149414 14.2178955,3.8149414 C14.926086,4.0063477 15.59668,4.2875977 16.218567,4.6450195 C16.218567,4.6450195 18.510498,2.9543457 18.510498,2.9543457 C18.510498,2.9543457 21.04596,5.489746 21.04596,5.489746 C21.04596,5.489746 19.355225,7.781494 19.355225,7.781494 C19.712585,8.403564 19.993713,9.07373 20.185242,9.782227 C20.185242,9.782227 23.000061,10.207275 23.000061,10.207275 C23.000061,10.207275 23.000061,13.793213 23.000061,13.793213 C23.000061,13.793213 20.185242,14.218262 20.185242,14.218262 ZM12.0,9.044189 C10.367676,9.044189 9.044067,10.367676 9.044067,12.000244 C9.044067,13.632568 10.367676,14.956055 12.0,14.956055 C13.632446,14.956055 14.956055,13.632568 14.956055,12.000244 C14.956055,10.367676 13.632446,9.044189 12.0,9.044189 Z"/>
</svg>