<svg xmlns="http://www.w3.org/2000/svg"
 xmlns:xlink="http://www.w3.org/1999/xlink"
 width="17px" height="11px"  viewBox="0 0 17 11">
<path fill-rule="evenodd"  fill="#bb9c66"
 d="M12.556824,6.5566406 C12.556824,6.5566406 11.939575,6.128418 11.939575,4.871582 C11.939575,3.6149902 14.408264,2.6247559 14.408264,2.6247559 C14.408264,2.6247559 13.791138,1.5014648 13.791138,1.5014648 C13.791138,1.5014648 9.470886,3.2348633 9.470886,6.5566406 C9.470886,9.878906 12.432861,9.927246 13.174011,9.927246 C13.9151,9.927246 15.6427,9.421631 15.6427,7.680176 C15.6427,5.9387207 14.296204,5.4333496 13.791138,5.4333496 C13.286072,5.4333496 12.44574,5.883301 12.556824,6.5566406 ZM4.45636,6.5566406 C4.45636,6.5566406 3.8390503,6.128418 3.8390503,4.871582 C3.8390503,3.6149902 6.3079224,2.6247559 6.3079224,2.6247559 C6.3079224,2.6247559 5.690613,1.5014648 5.690613,1.5014648 C5.690613,1.5014648 1.3703613,3.2348633 1.3703613,6.5566406 C1.3703613,9.878906 4.3323364,9.927246 5.0734863,9.927246 C5.814636,9.927246 7.5421753,9.421631 7.5421753,7.680176 C7.5421753,5.9387207 6.195862,5.4333496 5.690613,5.4333496 C5.185547,5.4333496 4.345337,5.883301 4.45636,6.5566406 Z"/>
</svg>